#define calendar_width 12
#define calendar_height 12
static unsigned char calendar_bits[] = {
   0x08, 0x01, 0xfe, 0x07, 0xfe, 0x07, 0x00, 0x00, 0xfe, 0x07, 0x92, 0x04,
   0xfe, 0x07, 0x92, 0x04, 0xfe, 0x07, 0x92, 0x04, 0xfe, 0x07, 0x00, 0x00 };
