#define clock_mask_width 16
#define clock_mask_height 16
static unsigned char clock_mask_bits[] = {
   0x00, 0x00, 0xe0, 0x07, 0x38, 0x1c, 0x8c, 0x31, 0x84, 0x21, 0x86, 0x61,
   0x82, 0x41, 0x82, 0x41, 0x82, 0x43, 0x02, 0x47, 0x06, 0x66, 0x04, 0x20,
   0x0c, 0x30, 0x38, 0x1c, 0xe0, 0x07, 0x00, 0x00 };
