#define clock_width 12
#define clock_height 12
static unsigned char clock_bits[] = {
   0x00, 0x00, 0xf0, 0x01, 0x08, 0x02, 0x44, 0x04, 0x42, 0x08, 0x42, 0x08,
   0x42, 0x08, 0x82, 0x08, 0x02, 0x08, 0x04, 0x04, 0x08, 0x02, 0xf0, 0x01 };
