#define code_width 18
#define code_height 12
static unsigned char code_bits[] = {
   0xce, 0x00, 0x00, 0x8c, 0x01, 0x00, 0x98, 0x01, 0x00, 0x18, 0xfb, 0x03,
   0x30, 0xf3, 0x03, 0x30, 0x07, 0x00, 0x30, 0xe7, 0x03, 0x98, 0xcd, 0x03,
   0x98, 0x0d, 0x00, 0xcc, 0x18, 0x00, 0xee, 0x38, 0x00, 0x00, 0x00, 0x00 };
