#define cpu_width 13
#define cpu_height 13
static unsigned char cpu_bits[] = {
   0xa8, 0x02, 0x00, 0x00, 0xf8, 0x03, 0x0d, 0x16, 0x04, 0x04, 0x05, 0x14,
   0x04, 0x04, 0x05, 0x14, 0x04, 0x04, 0x0d, 0x16, 0xf8, 0x03, 0x00, 0x00,
   0xa8, 0x02 };
