#define devel_width 16
#define devel_height 16
static unsigned char devel_bits[] = {
   0xc0, 0x01, 0xc0, 0x01, 0xf8, 0x0f, 0x18, 0x1c, 0xcc, 0x39, 0x8c, 0x33,
   0x07, 0xe3, 0x17, 0xe3, 0xf7, 0xe3, 0xe4, 0x27, 0x0c, 0x0e, 0x18, 0x1c,
   0x38, 0x38, 0xf0, 0x73, 0xc0, 0xe1, 0xc0, 0xc1 };
