#define Devel_width 12
#define Devel_height 12
static unsigned char Devel_bits[] = {
   0xfe, 0x07, 0x01, 0x08, 0x11, 0x08, 0x29, 0x08, 0x25, 0x0b, 0xa1, 0x08,
   0x41, 0x08, 0x01, 0x08, 0xff, 0x0f, 0xfe, 0x07, 0x60, 0x00, 0xfc, 0x03 };
