#define floating_width 12
#define floating_height 12
static unsigned char floating_bits[] = {
   0x1f, 0x00, 0xdf, 0x07, 0xdf, 0x07, 0xdf, 0x07, 0xdf, 0x07, 0xc0, 0x07,
   0xfe, 0x07, 0xfe, 0x07, 0xfe, 0x07, 0xfe, 0x07, 0xfe, 0x07, 0x00, 0x00 };
