#define mail_width 12
#define mail_height 12
static unsigned char mail_bits[] = {
   0x00, 0x00, 0x00, 0x00, 0x00, 0x00, 0xff, 0x0f, 0xfd, 0x0b, 0xfb, 0x0d,
   0xf7, 0x0e, 0x67, 0x0e, 0x9b, 0x0d, 0xfd, 0x0b, 0xff, 0x0f, 0x00, 0x00 };
