#define media_width 12
#define media_height 12
static unsigned char media_bits[] = {
   0x00, 0x02, 0x00, 0x01, 0x90, 0x00, 0x60, 0x00, 0xfe, 0x07, 0x01, 0x0e,
   0x01, 0x0a, 0x01, 0x0e, 0x01, 0x0e, 0x01, 0x0a, 0x01, 0x0e, 0xfe, 0x07 };
