#define mem_mask_width 16
#define mem_mask_height 16
static unsigned char mem_mask_bits[] = {
   0x00, 0x00, 0xe0, 0x07, 0xf4, 0x2f, 0xb7, 0xef, 0x10, 0x0f, 0xb0, 0x0f,
   0xf0, 0x0f, 0xf4, 0x2f, 0xf7, 0xef, 0xf0, 0x0f, 0xf0, 0x0f, 0xf0, 0x0f,
   0xf4, 0x2f, 0xf7, 0xef, 0xe0, 0x07, 0x00, 0x00 };
