#define mem_width 12
#define mem_height 12
static unsigned char mem_bits[] = {
   0x00, 0x00, 0xf2, 0x04, 0xfb, 0x0d, 0xc8, 0x01, 0xc8, 0x01, 0xfa, 0x05,
   0xfb, 0x0d, 0xf8, 0x01, 0xf8, 0x01, 0xfa, 0x05, 0xf3, 0x0c, 0x00, 0x00 };
