#define mirrortall_width 12
#define mirrortall_height 12
static unsigned char mirrortall_bits[] = {
   0xff, 0x07, 0xff, 0x07, 0xff, 0x07, 0xff, 0x07, 0xff, 0x07, 0xff, 0x07,
   0x00, 0x00, 0x77, 0x07, 0x77, 0x07, 0x77, 0x07, 0x77, 0x07, 0x00, 0x00 };
