#define Music_width 12
#define Music_height 12
static unsigned char Music_bits[] = {
   0x00, 0x00, 0xf0, 0x0f, 0xf0, 0x0f, 0x10, 0x08, 0x10, 0x08, 0x10, 0x08,
   0x10, 0x08, 0x10, 0x0e, 0x1c, 0x0f, 0x1e, 0x06, 0x0c, 0x00, 0x00, 0x00 };
