#define music_width 12
#define music_height 12
static unsigned char music_bits[] = {
   0x00, 0x00, 0xf0, 0x0f, 0x10, 0x08, 0x10, 0x08, 0x10, 0x08, 0x10, 0x08,
   0x10, 0x08, 0x10, 0x08, 0x1c, 0x0e, 0x0e, 0x07, 0x0c, 0x06, 0x00, 0x00 };
