#define Network_width 16
#define Network_height 16
static unsigned char Network_bits[] = {
   0x00, 0x00, 0xfc, 0x3f, 0xf8, 0x1f, 0x00, 0x00, 0x00, 0x00, 0xf0, 0x0f,
   0xe0, 0x07, 0x00, 0x00, 0x00, 0x00, 0xc0, 0x03, 0xc0, 0x03, 0x00, 0x00,
   0x00, 0x00, 0x80, 0x01, 0x80, 0x01, 0x00, 0x00 };
