#define pacman_width 12
#define pacman_height 12
static unsigned char pacman_bits[] = {
   0x00, 0x00, 0x00, 0x00, 0x78, 0x00, 0xdc, 0x00, 0xfe, 0x01, 0x7e, 0x00,
   0x3e, 0x00, 0x7e, 0x00, 0xfc, 0x01, 0xf8, 0x00, 0x00, 0x00, 0x00, 0x00 };
