#define thermometer_width 12
#define thermometer_height 12
static unsigned char thermometer_bits[] = {
   0xe0, 0x00, 0x10, 0x01, 0x10, 0x01, 0x10, 0x01, 0x50, 0x01, 0x50, 0x01,
   0x50, 0x01, 0x48, 0x02, 0xe8, 0x02, 0xe8, 0x02, 0x10, 0x01, 0xe0, 0x00 };
