#define tiling_width 12
#define tiling_height 12
static unsigned char tiling_bits[] = {
   0xdf, 0x07, 0xdf, 0x07, 0xdf, 0x07, 0x1f, 0x00, 0xdf, 0x07, 0xdf, 0x07,
   0xdf, 0x07, 0x1f, 0x00, 0xdf, 0x07, 0xdf, 0x07, 0xdf, 0x07, 0x00, 0x00 };
