#define www_width 12
#define www_height 12
static unsigned char www_bits[] = {
   0x1f, 0x00, 0x78, 0x00, 0xf0, 0x00, 0xc3, 0x01, 0x8f, 0x03, 0x38, 0x07,
   0x71, 0x06, 0x67, 0x0c, 0xcc, 0x0c, 0x88, 0x08, 0x99, 0x09, 0xb3, 0x09 };
