#define Arch_width 16
#define Arch_height 16
static unsigned char Arch_bits[] = {
   0x80, 0x01, 0x80, 0x01, 0x80, 0x01, 0x80, 0x01, 0xc0, 0x03, 0xc0, 0x03,
   0xc0, 0x03, 0xe0, 0x07, 0xe0, 0x07, 0x70, 0x0e, 0x70, 0x0e, 0x38, 0x1c,
   0x3c, 0x3c, 0x3e, 0x7c, 0x07, 0xe0, 0x01, 0x80 };
