#define battery_width 12
#define battery_height 12
static unsigned char battery_bits[] = {
   0x60, 0x00, 0xf8, 0x01, 0x04, 0x02, 0x74, 0x02, 0xb4, 0x02, 0xd4, 0x02,
   0x64, 0x02, 0xb4, 0x02, 0xd4, 0x02, 0xe4, 0x02, 0x04, 0x02, 0xfc, 0x03 };
