#define calendar_width 16
#define calendar_height 16
static unsigned char calendar_bits[] = {
   0x20, 0x08, 0x20, 0x08, 0xf8, 0x3f, 0xfc, 0x7f, 0x00, 0x00, 0xfc, 0x7f,
   0x24, 0x49, 0x24, 0x49, 0xfc, 0x7f, 0x24, 0x49, 0x24, 0x49, 0x24, 0x49,
   0xfc, 0x7f, 0x24, 0x49, 0x24, 0x49, 0xf8, 0x3f };
