#define code_width 16
#define code_height 16
static unsigned char code_bits[] = {
   0x00, 0x00, 0x00, 0x00, 0x66, 0x00, 0x66, 0x00, 0xcc, 0x00, 0xdc, 0xfd,
   0x98, 0xfd, 0x30, 0x03, 0x30, 0xf3, 0x98, 0xf7, 0xdc, 0x0f, 0xee, 0x1c,
   0x77, 0x38, 0x33, 0x30, 0x00, 0x00, 0x00, 0x00 };
