#define cpu_mask_width 16
#define cpu_mask_height 16
static unsigned char cpu_mask_bits[] = {
   0x50, 0x05, 0x50, 0x05, 0x00, 0x00, 0xf0, 0x0f, 0x0b, 0xd0, 0x08, 0x10,
   0x0b, 0xd0, 0x08, 0x10, 0x0b, 0xd0, 0x08, 0x10, 0x0b, 0xd0, 0x08, 0x10,
   0xf0, 0x0f, 0x00, 0x00, 0xa0, 0x0a, 0xa0, 0x0a };
