#define Devel_width 16
#define Devel_height 16
static unsigned char Devel_bits[] = {
   0x00, 0x00, 0xfe, 0x7f, 0x01, 0x80, 0x41, 0x80, 0xe1, 0x80, 0xa1, 0x80,
   0x9d, 0xbc, 0x81, 0x82, 0x81, 0x83, 0x01, 0x81, 0x01, 0x80, 0xff, 0xff,
   0xfe, 0x7f, 0xc0, 0x03, 0x80, 0x01, 0xf8, 0x1f };
