#define media_width 16
#define media_height 16
static unsigned char media_bits[] = {
   0x00, 0x10, 0x00, 0x08, 0x20, 0x04, 0x40, 0x02, 0x80, 0x01, 0x7e, 0x7f,
   0x03, 0xf8, 0x01, 0xf0, 0x01, 0x90, 0x01, 0x90, 0x01, 0xf0, 0x01, 0x90,
   0x01, 0x90, 0x01, 0xf0, 0x03, 0xf8, 0xfc, 0x7f };
