#define media_mask_width 16
#define media_mask_height 16
static unsigned char media_mask_bits[] = {
   0x00, 0x10, 0x00, 0x08, 0x20, 0x04, 0x40, 0x02, 0x80, 0x01, 0xfe, 0x7f,
   0x03, 0xf8, 0x01, 0xf0, 0x01, 0x90, 0x01, 0x90, 0x01, 0xf0, 0x01, 0x90,
   0x01, 0x90, 0x01, 0xf0, 0x03, 0xf8, 0xfe, 0x7f };
