#define Music_width 16
#define Music_height 16
static unsigned char Music_bits[] = {
   0x00, 0x00, 0xe0, 0xff, 0xe0, 0xff, 0x20, 0x80, 0x20, 0x80, 0x20, 0x80,
   0x20, 0x80, 0x20, 0x80, 0x20, 0x80, 0x20, 0x80, 0x20, 0xf8, 0x3c, 0xfc,
   0x3e, 0xfc, 0x3e, 0x78, 0x1c, 0x00, 0x00, 0x00 };
