#define pacman_width 16
#define pacman_height 16
static unsigned char pacman_bits[] = {
   0x00, 0x00, 0x00, 0x00, 0xe0, 0x00, 0xf8, 0x03, 0x7c, 0x06, 0x7c, 0x0e,
   0xfe, 0x03, 0xfe, 0x41, 0xfe, 0xe0, 0xfe, 0x41, 0xfe, 0x03, 0xfc, 0x0f,
   0xf8, 0x07, 0xe0, 0x00, 0x00, 0x00, 0x00, 0x00 };
