#define thermometer_width 16
#define thermometer_height 16
static unsigned char thermometer_bits[] = {
   0x80, 0x01, 0x40, 0x02, 0x20, 0x04, 0x20, 0x04, 0x20, 0x04, 0x20, 0x04,
   0xa0, 0x05, 0xa0, 0x05, 0xa0, 0x05, 0xa0, 0x05, 0xa0, 0x05, 0x90, 0x09,
   0xd0, 0x0b, 0x90, 0x09, 0x20, 0x04, 0xc0, 0x03 };
