#define www_width 16
#define www_height 16
static unsigned char www_bits[] = {
   0x00, 0x00, 0x0e, 0x00, 0x7e, 0x00, 0xe0, 0x01, 0xc0, 0x03, 0x0e, 0x07,
   0x3e, 0x0e, 0xe0, 0x1c, 0xc6, 0x19, 0x9e, 0x31, 0x30, 0x33, 0x20, 0x62,
   0x66, 0x66, 0xce, 0x66, 0xcc, 0x66, 0x00, 0x00 };
